<svg width="30" height="30" viewBox="0 0 30 30" fill="none" xmlns="http://www.w3.org/2000/svg">
<path fill-rule="evenodd" clip-rule="evenodd" d="M29.4595 25.991C28.5336 28.8049 24.9057 30.2088 22.3138 29.9748C18.7739 29.6549 14.9221 27.7769 11.9982 25.709C7.70032 22.6691 3.67446 17.9673 1.32855 12.9775C-0.329395 9.45158 -0.701382 5.11573 1.76453 1.90185C2.6765 0.71389 3.66446 0.0799127 5.14441 0.00591538C7.20034 -0.0940811 7.48833 1.08188 8.1943 2.91381C8.72028 4.28376 9.42226 5.68171 9.81424 7.10166C10.5482 9.75157 7.98231 9.86156 7.65832 12.0275C7.45833 13.3934 9.11227 15.2254 9.86024 16.1993C11.302 18.0962 13.0678 19.7232 15.0761 21.0052C16.216 21.7231 18.052 23.0171 19.3559 22.3031C21.3638 21.2032 21.1758 17.8173 23.9817 18.9632C25.4357 19.5552 26.8436 20.4092 28.2316 21.1572C30.3775 22.3111 30.2775 23.5071 29.4595 25.991C30.0715 24.1351 28.8476 27.8469 29.4595 25.991Z" fill="white"/>
</svg>
